<svg width="24" height="24" viewBox="0 0 24 24" fill="none" xmlns="http://www.w3.org/2000/svg">
<path fill-rule="evenodd" clip-rule="evenodd" d="M7 2C7 1.44772 7.44772 1 8 1C8.55228 1 9 1.44772 9 2V4H16V2C16 1.44772 16.4477 1 17 1C17.5523 1 18 1.44772 18 2V4H19C20.6569 4 22 5.34315 22 7V9H2V7C2 5.34315 3.34315 4 5 4H7V2Z" fill="#5F5F5F"/>
<path fill-rule="evenodd" clip-rule="evenodd" d="M22 11H2V19C2 20.6569 3.34315 22 5 22H19C20.6569 22 22 20.6569 22 19V11ZM9 15C8.44772 15 8 15.4477 8 16C8 16.5523 8.44772 17 9 17H14C14.5523 17 15 16.5523 15 16C15 15.4477 14.5523 15 14 15H9Z" fill="#5F5F5F"/>
</svg>
