<svg width="18" height="18" viewBox="0 0 18 18" fill="none" xmlns="http://www.w3.org/2000/svg">
<path d="M4 13.5V9.5C4 8.94772 4.44772 8.5 5 8.5C5.55228 8.5 6 8.94772 6 9.5V13.5C6 14.0523 5.55228 14.5 5 14.5C4.44772 14.5 4 14.0523 4 13.5Z" stroke="#8A8A8A" stroke-linecap="round"/>
<path d="M6 13.5V8.75499C6 8.58768 6.04198 8.42303 6.1221 8.27614L8.4767 3.95939C8.75789 3.44386 9.42068 3.28046 9.90929 3.60619L10.0547 3.70313C10.3329 3.8886 10.5 4.20083 10.5 4.53518V6.5C10.5 7.05228 10.9477 7.5 11.5 7.5H13.263C13.8997 7.5 14.3742 8.08702 14.2408 8.70953L13.1694 13.7095C13.0706 14.1706 12.6632 14.5 12.1916 14.5H6.99824C6.44596 14.5 6 14.0523 6 13.5Z" stroke="#8A8A8A" stroke-linecap="round"/>
</svg>
