<svg width="44" height="44" viewBox="0 0 44 44" fill="none" xmlns="http://www.w3.org/2000/svg">
<path d="M30 18.1212C30 17.767 29.8126 17.4392 29.5073 17.2595L22.5073 13.1383C22.1942 12.9539 21.8058 12.9539 21.4927 13.1383L14.4927 17.2595C14.1874 17.4392 14 17.767 14 18.1212V26.8788C14 27.2436 14.1987 27.5795 14.5184 27.7552L22.0184 31.8764C22.3551 32.0614 22.768 32.0372 23.0807 31.8141L29.5807 27.1778C29.8438 26.9901 30 26.6868 30 26.3636V18.1212Z" stroke="white" stroke-width="2" stroke-linecap="round" stroke-linejoin="round"/>
<path d="M25 25L22.2727 26L19 24.5V20.5L22.2727 19L25 20" stroke="white" stroke-width="1.5" stroke-linecap="square"/>
</svg>
