<svg width="44" height="44" viewBox="0 0 44 44" fill="none" xmlns="http://www.w3.org/2000/svg">
<g clip-path="url(#clip0_1082_5746)">
<path d="M21.8755 29.2588L21.8749 29.2592C21.7535 29.3325 21.6362 29.3947 21.5393 29.4356C21.5247 29.4418 21.5116 29.447 21.5 29.4514C21.4884 29.447 21.4753 29.4418 21.4607 29.4356C21.3638 29.3947 21.2465 29.3325 21.1251 29.2592C18.5644 27.7127 16.5104 26.062 15.1071 24.383C13.703 22.7031 13 21.0575 13 19.4918C13 16.8078 14.94 15 17.3977 15C18.8708 15 19.9656 15.7416 20.6324 16.9049L21.4903 18.4014L22.3627 16.9134C23.0352 15.7663 24.3688 15 25.6117 15C28.0589 15 30 16.8067 30 19.4918C30 21.0583 29.2987 22.7039 27.8962 24.3833C26.4942 26.062 24.4406 27.7125 21.8755 29.2588ZM21.4377 29.4717C21.4377 29.4716 21.4385 29.4714 21.4401 29.4711L21.4377 29.4717ZM21.5599 29.4711C21.5615 29.4714 21.5623 29.4716 21.5623 29.4717L21.5599 29.4711Z" stroke="white" stroke-width="2"/>
</g>
<defs>
<clipPath id="clip0_1082_5746">
<rect width="44" height="44" fill="white"/>
</clipPath>
</defs>
</svg>
