<svg width="18" height="18" viewBox="0 0 18 18" fill="none" xmlns="http://www.w3.org/2000/svg">
<path d="M7 4L5 6M7 4L9 6M7 4V13" stroke="#8A8A8A" stroke-linecap="round"/>
<path d="M11.5 13L13.5 11M11.5 13L9.5 11M11.5 13L11.5 4" stroke="#8A8A8A" stroke-linecap="round"/>
<path d="M11.5 13L13.5 11M11.5 13L9.5 11M11.5 13L11.5 4" stroke="#8A8A8A" stroke-linecap="round"/>
<path d="M11.5 13L13.5 11M11.5 13L9.5 11M11.5 13L11.5 4" stroke="#8A8A8A" stroke-linecap="round"/>
<path d="M11.5 13L13.5 11M11.5 13L9.5 11M11.5 13L11.5 4" stroke="#8A8A8A" stroke-linecap="round"/>
</svg>
