<svg width="24" height="24" viewBox="0 0 24 24" fill="none" xmlns="http://www.w3.org/2000/svg">
<path d="M15.25 20V20.75H16H19C19.9665 20.75 20.75 19.9665 20.75 19V5C20.75 4.0335 19.9665 3.25 19 3.25H17C16.0335 3.25 15.25 4.0335 15.25 5V20Z" stroke="#5F5F5F" stroke-width="1.5"/>
<path d="M14 20.75H14.75V20V9C14.75 8.0335 13.9665 7.25 13 7.25H11C10.0335 7.25 9.25 8.0335 9.25 9V20V20.75H10H14Z" stroke="#5F5F5F" stroke-width="1.5"/>
<path d="M8 20.75H8.75V20V14C8.75 13.0335 7.9665 12.25 7 12.25H5C4.0335 12.25 3.25 13.0335 3.25 14V19C3.25 19.9665 4.0335 20.75 5 20.75H8Z" stroke="#5F5F5F" stroke-width="1.5"/>
</svg>
